<svg width="319" height="224" viewBox="0 0 319 224" fill="none" xmlns="http://www.w3.org/2000/svg">
<path d="M317.75 56.7535H254.206C254.206 56.3506 254.206 55.9477 254.206 55.5448C254.206 46.3787 261.592 39.0258 270.8 39.0258C276.062 39.0258 280.817 41.5439 283.853 45.3715C285.978 43.9613 288.507 43.1555 291.239 43.1555C296.299 43.1555 300.751 45.9758 302.876 50.2063C304.394 48.9976 306.417 48.3933 308.441 48.3933C313.298 48.2925 317.345 52.0194 317.75 56.7535Z" stroke="#FAFCFE" stroke-width="2"/>
<path d="M122.766 13.7436H76.119C76.119 13.4415 76.119 13.1393 76.119 12.8371C76.119 6.08847 81.583 0.75 88.2613 0.75C92.1063 0.75 95.6478 2.56307 97.8739 5.38339C99.3917 4.37613 101.314 3.77178 103.338 3.77178C107.082 3.77178 110.32 5.88702 111.939 8.90879C113.052 8.10299 114.468 7.59936 115.986 7.59936C119.528 7.59936 122.462 10.319 122.766 13.7436Z" stroke="#FAFCFE" stroke-width="1.5"/>
<path d="M48.7989 91.4031H16.4196C16.4196 91.1923 16.4196 90.9815 16.4196 90.7706C16.4196 86.0623 20.2124 82.3378 24.848 82.3378C27.517 82.3378 29.9753 83.6027 31.5206 85.5704C32.5741 84.8676 33.9086 84.446 35.3134 84.446C37.9122 84.446 40.1597 85.9217 41.2835 88.03C42.0561 87.4678 43.0395 87.1164 44.093 87.1164C46.5513 87.1164 48.5882 89.0138 48.7989 91.4031Z" stroke="#FAFCFE" stroke-width="1.5"/>
<path d="M196.226 15.3552V6.69275H172.852V15.3552H131.67V222.548H201.387V15.3552H196.226Z" stroke="#FAFCFE" stroke-width="1.5"/>
<path d="M148.973 37.7444H140.473V58.6954H148.973V37.7444Z" stroke="white"/>
<path d="M163.543 37.7444H155.044V58.6954H163.543V37.7444Z" fill="#27C499" stroke="white"/>
<path d="M178.114 37.7444H169.615V58.6954H178.114V37.7444Z" stroke="white"/>
<path d="M192.584 37.7444H184.084V58.6954H192.584V37.7444Z" stroke="white"/>
<path d="M148.973 68.4661H140.473V89.417H148.973V68.4661Z" stroke="white"/>
<path d="M163.543 68.4661H155.044V89.417H163.543V68.4661Z" stroke="white"/>
<path d="M178.114 68.4661H169.615V89.417H178.114V68.4661Z" fill="#27C499" stroke="white"/>
<path d="M192.584 68.4661H184.084V89.417H192.584V68.4661Z" stroke="white"/>
<path d="M148.973 99.0867H140.473V120.038H148.973V99.0867Z" fill="#27C499" stroke="white"/>
<path d="M163.543 99.0867H155.044V120.038H163.543V99.0867Z" stroke="white"/>
<path d="M178.114 99.0867H169.615V120.038H178.114V99.0867Z" stroke="white"/>
<path d="M192.584 99.0867H184.084V120.038H192.584V99.0867Z" stroke="white"/>
<path d="M148.973 129.808H140.473V150.759H148.973V129.808Z" stroke="white"/>
<path d="M163.543 129.808H155.044V150.759H163.543V129.808Z" stroke="white"/>
<path d="M178.114 129.808H169.615V150.759H178.114V129.808Z" stroke="white"/>
<path d="M192.584 129.808H184.084V150.759H192.584V129.808Z" fill="#27C499" stroke="white"/>
<path d="M148.973 159.22H140.473V180.171H148.973V159.22Z" stroke="white"/>
<path d="M163.543 159.22H155.044V180.171H163.543V159.22Z" stroke="white"/>
<path d="M178.114 159.22H169.615V180.171H178.114V159.22Z" fill="#27C499" stroke="white"/>
<path d="M192.584 159.22H184.084V180.171H192.584V159.22Z" stroke="white"/>
<path d="M90.0824 53.9332V44.8679H66.7086V53.9332H61.8517V222.548H131.67V53.9332H90.0824Z" stroke="#FAFCFE" stroke-width="1.5"/>
<path d="M79.2554 74.8115H70.7559V95.7625H79.2554V74.8115Z" stroke="white"/>
<path d="M93.7249 74.8115H85.2253V95.7625H93.7249V74.8115Z" stroke="white"/>
<path d="M108.296 74.8115H99.7961V95.7625H108.296V74.8115Z" stroke="white"/>
<path d="M122.866 74.8115H114.367V95.7625H122.866V74.8115Z" fill="#4FB08E" stroke="white"/>
<path d="M79.2554 105.533H70.7559V126.484H79.2554V105.533Z" fill="#4FB08E" stroke="white"/>
<path d="M93.7249 105.533H85.2253V126.484H93.7249V105.533Z" fill="white" stroke="white"/>
<path d="M108.296 105.533H99.7961V126.484H108.296V105.533Z" stroke="white"/>
<path d="M122.866 105.533H114.367V126.484H122.866V105.533Z" fill="white" stroke="white"/>
<path d="M79.2554 136.154H70.7559V157.105H79.2554V136.154Z" stroke="white"/>
<path d="M93.7249 136.154H85.2253V157.105H93.7249V136.154Z" stroke="white"/>
<path d="M108.296 136.154H99.7961V157.105H108.296V136.154Z" fill="white" stroke="white"/>
<path d="M122.866 136.154H114.367V157.105H122.866V136.154Z" fill="#4FB08E" stroke="white"/>
<path d="M79.2554 166.875H70.7559V187.826H79.2554V166.875Z" stroke="white"/>
<path d="M93.7249 166.875H85.2253V187.826H93.7249V166.875Z" fill="#4FB08E" stroke="white"/>
<path d="M108.296 166.875H99.7961V187.826H108.296V166.875Z" fill="white" stroke="white"/>
<path d="M122.866 166.875H114.367V187.826H122.866V166.875Z" stroke="white"/>
<path d="M201.352 78.0068H241.32V70.2511H261.355V78.0068H261.253V222.75H201.352V78.0068Z" stroke="#FAFCFE" stroke-width="1.5"/>
<path d="M215.451 101.202H208.166V119.232H215.451V101.202Z" fill="white" stroke="white"/>
<path d="M227.897 101.202H220.612V119.232H227.897V101.202Z" stroke="white"/>
<path d="M240.444 101.202H233.159V119.232H240.444V101.202Z" fill="#4FB08E" stroke="white"/>
<path d="M252.89 101.202H245.605V119.232H252.89V101.202Z" stroke="white"/>
<path d="M215.451 127.491H208.166V145.521H215.451V127.491Z" fill="white" stroke="white"/>
<path d="M227.897 127.491H220.612V145.521H227.897V127.491Z" fill="#4FB08E" stroke="white"/>
<path d="M240.444 127.491H233.159V145.521H240.444V127.491Z" stroke="white"/>
<path d="M252.89 127.491H245.605V145.521H252.89V127.491Z" fill="white" stroke="white"/>
<path d="M215.451 153.881H208.166V171.911H215.451V153.881Z" stroke="white"/>
<path d="M227.897 153.881H220.612V171.911H227.897V153.881Z" fill="white" stroke="white"/>
<path d="M240.444 153.881H233.159V171.911H240.444V153.881Z" stroke="white"/>
<path d="M252.89 153.881H245.605V171.911H252.89V153.881Z" fill="#4FB08E" stroke="white"/>
<path d="M215.451 180.171H208.166V198.201H215.451V180.171Z" fill="#4FB08E" stroke="white"/>
<path d="M227.897 180.171H220.612V198.201H227.897V180.171Z" stroke="white"/>
<path d="M240.444 180.171H233.159V198.201H240.444V180.171Z" fill="white" stroke="white"/>
<path d="M252.89 180.171H245.605V198.201H252.89V180.171Z" stroke="white"/>
<path d="M61.8371 134.715H17.4166V222.548H61.8371V134.715Z" stroke="#FAFCFE" stroke-width="1.5"/>
<path d="M28.4458 153.378H23.083V167.076H28.4458V153.378Z" stroke="white"/>
<path d="M37.7549 153.378H32.3921V167.076H37.7549V153.378Z" fill="white" stroke="white"/>
<path d="M46.9628 153.378H41.6V167.076H46.9628V153.378Z" stroke="white"/>
<path d="M56.2719 153.378H50.9091V167.076H56.2719V153.378Z" stroke="white"/>
<path d="M28.4458 173.019H23.083V186.718H28.4458V173.019Z" stroke="white"/>
<path d="M37.7549 173.019H32.3921V186.718H37.7549V173.019Z" stroke="white"/>
<path d="M46.9628 173.019H41.6V186.718H46.9628V173.019Z" fill="#27C499" stroke="white"/>
<path d="M56.2719 173.019H50.9091V186.718H56.2719V173.019Z" stroke="white"/>
<path d="M28.4458 192.661H23.083V206.36H28.4458V192.661Z" stroke="white"/>
<path d="M37.7549 192.661H32.3921V206.36H37.7549V192.661Z" fill="#27C499" stroke="white"/>
<path d="M46.9628 192.661H41.6V206.36H46.9628V192.661Z" stroke="white"/>
<path d="M56.2719 192.661H50.9091V206.36H56.2719V192.661Z" fill="white" stroke="white"/>
<path d="M166.984 212.993C163.544 212.993 161.823 209.669 162.127 205.64C162.532 199.999 166.984 193.15 166.984 193.15C166.984 193.15 170.728 199.999 170.93 205.64C171.031 209.568 170.424 212.993 166.984 212.993Z" fill="#4FB08E" stroke="#FAFCFE" stroke-width="1.5"/>
<path d="M166.883 204.129V220.749" stroke="#FAFCFE" stroke-width="1.5" stroke-miterlimit="10" stroke-linecap="round"/>
<path d="M269.808 214.207C266.368 214.207 264.647 210.883 264.951 206.854C265.356 201.213 269.808 194.364 269.808 194.364C269.808 194.364 273.552 201.213 273.754 206.854C273.855 210.782 273.248 214.207 269.808 214.207Z" fill="#4FB08E" stroke="#FAFCFE" stroke-width="1.5"/>
<path d="M269.707 205.343V221.963" stroke="#FAFCFE" stroke-width="1.5" stroke-miterlimit="10" stroke-linecap="round"/>
<path d="M0.75 222.75L288.117 222.75" stroke="#FAFCFE" stroke-width="1.5" stroke-miterlimit="10" stroke-linecap="round"/>
</svg>
