<svg xmlns="http://www.w3.org/2000/svg" fill="none" viewBox="27.817868098159508 50.8392 345.3680981595092 365.148" style="max-height: 500px" width="345.3680981595092" height="365.148">
<path fill="#151B38" d="M357.048 225.788C360.223 225.788 362.87 228.434 362.87 231.61C362.87 234.786 360.223 237.432 357.048 237.432C353.872 237.432 351.226 234.786 351.226 231.61C351.226 228.329 353.766 225.788 357.048 225.788ZM357.048 227.588C354.825 227.588 353.025 229.387 353.025 231.61C353.025 233.833 354.825 235.633 357.048 235.633C359.271 235.633 361.07 233.833 361.07 231.61C360.964 229.387 359.165 227.588 357.048 227.588Z"/>
<path fill="#151B38" d="M351.12 196.149C354.296 196.149 356.942 198.795 356.942 201.971C356.942 205.146 354.296 207.793 351.12 207.793C347.944 207.793 345.298 205.146 345.298 201.971C345.298 198.795 347.838 196.149 351.12 196.149ZM351.12 197.948C348.897 197.948 347.097 199.748 347.097 201.971C347.097 204.194 348.897 205.993 351.12 205.993C353.343 205.993 355.142 204.194 355.142 201.971C355.037 199.748 353.237 197.948 351.12 197.948Z"/>
<path fill="#27C499" d="M333.336 187.998C333.336 188.527 333.76 188.951 334.289 188.951H338.312C338.841 188.951 339.264 188.527 339.264 187.998C339.264 187.469 338.841 187.045 338.312 187.045H334.289C333.76 187.045 333.336 187.469 333.336 187.998Z"/>
<path fill="#27C499" d="M326.35 187.998C326.35 188.527 326.773 188.951 327.303 188.951H331.325C331.854 188.951 332.278 188.527 332.278 187.998C332.278 187.469 331.854 187.045 331.325 187.045H327.303C326.773 187.045 326.35 187.469 326.35 187.998Z"/>
<path fill="#27C499" d="M331.854 182.282V185.881C331.854 186.41 332.278 186.834 332.807 186.834C333.336 186.834 333.76 186.41 333.76 185.881V182.282C333.76 181.752 333.336 181.329 332.807 181.329C332.278 181.435 331.854 181.858 331.854 182.282Z"/>
<path fill="#27C499" d="M331.854 190.009V193.608C331.854 194.137 332.278 194.561 332.807 194.561C333.336 194.561 333.76 194.137 333.76 193.608V190.009C333.76 189.48 333.336 189.056 332.807 189.056C332.278 189.056 331.854 189.48 331.854 190.009Z"/>
<path fill="#27C499" d="M339.899 219.013C339.899 219.543 340.323 219.966 340.852 219.966H344.875C345.404 219.966 345.827 219.543 345.827 219.013C345.827 218.484 345.404 218.061 344.875 218.061H340.852C340.323 218.166 339.899 218.59 339.899 219.013Z"/>
<path fill="#27C499" d="M332.913 219.013C332.913 219.543 333.336 219.966 333.866 219.966H337.888C338.417 219.966 338.841 219.543 338.841 219.013C338.841 218.484 338.417 218.061 337.888 218.061H333.866C333.336 218.166 332.913 218.59 332.913 219.013Z"/>
<path fill="#27C499" d="M338.417 213.403V217.002C338.417 217.531 338.841 217.955 339.37 217.955C339.899 217.955 340.323 217.531 340.323 217.002V213.403C340.323 212.874 339.899 212.45 339.37 212.45C338.841 212.45 338.417 212.874 338.417 213.403Z"/>
<path fill="#27C499" d="M338.417 221.13V224.729C338.417 225.259 338.841 225.682 339.37 225.682C339.899 225.682 340.323 225.259 340.323 224.729V221.13C340.323 220.601 339.899 220.178 339.37 220.178C338.841 220.178 338.417 220.601 338.417 221.13Z"/>
<path fill="#151B38" d="M46.4702 140.363C46.4702 143.539 43.8238 146.185 40.6482 146.185C37.4726 146.185 34.8262 143.539 34.8262 140.363C34.8262 137.188 37.4726 134.541 40.6482 134.541C43.9297 134.541 46.4702 137.082 46.4702 140.363ZM44.6707 140.363C44.6707 138.14 42.8712 136.341 40.6482 136.341C38.4253 136.341 36.6257 138.14 36.6257 140.363C36.6257 142.586 38.4253 144.386 40.6482 144.386C42.8712 144.28 44.6707 142.48 44.6707 140.363Z"/>
<path fill="#151B38" d="M70.2875 132.424C70.2875 135.6 67.6411 138.246 64.4655 138.246C61.2899 138.246 58.6435 135.6 58.6435 132.424C58.6435 129.249 61.2899 126.602 64.4655 126.602C67.6411 126.602 70.2875 129.249 70.2875 132.424ZM68.488 132.424C68.488 130.201 66.6884 128.402 64.4655 128.402C62.2426 128.402 60.443 130.201 60.443 132.424C60.443 134.647 62.2426 136.447 64.4655 136.447C66.6884 136.447 68.488 134.647 68.488 132.424Z"/>
<path fill="#27C499" d="M71.0285 107.442C70.4992 107.442 70.0758 107.866 70.0758 108.395V112.418C70.0758 112.947 70.4992 113.37 71.0285 113.37C71.5578 113.37 71.9812 112.947 71.9812 112.418V108.395C71.9812 107.866 71.5578 107.442 71.0285 107.442Z"/>
<path fill="#27C499" d="M71.0285 100.456C70.4992 100.456 70.0758 100.88 70.0758 101.409V105.431C70.0758 105.961 70.4992 106.384 71.0285 106.384C71.5578 106.384 71.9812 105.961 71.9812 105.431V101.409C71.9812 100.88 71.5578 100.456 71.0285 100.456Z"/>
<path fill="#27C499" d="M76.6388 105.961H73.0397C72.5105 105.961 72.087 106.384 72.087 106.913C72.087 107.442 72.5105 107.866 73.0397 107.866H76.6388C77.1681 107.866 77.5915 107.442 77.5915 106.913C77.5915 106.384 77.1681 105.961 76.6388 105.961Z"/>
<path fill="#27C499" d="M69.0173 105.961H65.4182C64.8889 105.961 64.4655 106.384 64.4655 106.913C64.4655 107.442 64.8889 107.866 65.4182 107.866H69.0173C69.5465 107.866 69.97 107.442 69.97 106.913C69.8641 106.384 69.4407 105.961 69.0173 105.961Z"/>
<path fill="#27C499" d="M46.3643 113.9C45.8351 113.9 45.4117 114.323 45.4117 114.852V118.875C45.4117 119.404 45.8351 119.827 46.3643 119.827C46.8936 119.827 47.317 119.404 47.317 118.875V114.852C47.2112 114.323 46.8936 113.9 46.3643 113.9Z"/>
<path fill="#27C499" d="M46.3643 106.913C45.8351 106.913 45.4117 107.337 45.4117 107.866V111.888C45.4117 112.418 45.8351 112.841 46.3643 112.841C46.8936 112.841 47.317 112.418 47.317 111.888V107.866C47.2112 107.337 46.8936 106.913 46.3643 106.913Z"/>
<path fill="#27C499" d="M51.9747 112.418H48.3756C47.8463 112.418 47.4229 112.841 47.4229 113.37C47.4229 113.9 47.8463 114.323 48.3756 114.323H51.9747C52.5039 114.323 52.9274 113.9 52.9274 113.37C52.9274 112.841 52.5039 112.418 51.9747 112.418Z"/>
<path fill="#27C499" d="M44.3531 112.418H40.7541C40.2248 112.418 39.8014 112.841 39.8014 113.37C39.8014 113.9 40.2248 114.323 40.7541 114.323H44.3531C44.8824 114.323 45.3058 113.9 45.3058 113.37C45.2 112.841 44.7765 112.418 44.3531 112.418Z"/>
<path fill="#151B38" d="M65.1006 170.955V190.433C65.1006 191.703 64.0421 192.656 62.8777 192.656H43.4004C42.5536 192.656 41.8126 192.232 41.3892 191.491C41.3892 191.385 41.2833 191.385 41.2833 191.279C41.2833 191.174 41.1775 191.068 41.1775 190.962C41.1775 190.962 41.1775 190.962 41.1775 190.856C41.1775 190.75 41.1775 190.644 41.1775 190.433V170.955C41.1775 169.791 42.0243 168.838 43.1887 168.732C43.2946 168.732 43.4004 168.732 43.4004 168.732H62.8777C63.0894 168.732 63.3011 168.732 63.5128 168.838C64.4655 169.05 65.1006 169.897 65.1006 170.955Z"/>
<path fill="#FAFCFE" d="M57.413 184.196L58.3918 186.332C58.0359 186.51 57.6799 186.689 57.2351 186.778C56.7902 186.867 56.3453 186.956 55.9894 186.956C55.4555 186.956 54.7437 186.867 53.8539 186.6C52.9641 186.332 52.3412 186.243 51.8963 186.243C51.1845 186.243 50.4727 186.51 49.6719 187.045L48.6931 184.908C49.316 184.463 49.8498 183.929 50.1168 183.395C50.3837 182.86 50.5617 182.326 50.5617 181.881C50.5617 181.703 50.5617 181.525 50.5617 181.347H48.6931V179.388H50.1168C49.8498 178.676 49.7609 177.964 49.7609 177.252C49.7609 176.629 49.9388 176.006 50.2947 175.382C50.6507 174.759 51.0956 174.403 51.8074 174.047C52.4302 173.78 53.1421 173.602 53.9429 173.602C55.0996 173.602 55.9894 173.869 56.7012 174.492C57.413 175.115 57.7689 175.917 57.9469 176.985L55.5445 177.341C55.4555 176.718 55.1886 176.273 54.9216 176.006C54.6547 175.738 54.2988 175.56 53.8539 175.56C53.409 175.56 52.9641 175.738 52.6972 176.006C52.4302 176.362 52.2523 176.718 52.2523 177.163C52.2523 177.43 52.2523 177.697 52.3412 178.142C52.4302 178.587 52.5192 178.943 52.6972 179.21H55.4555V181.169H53.1421C53.1421 181.258 53.1421 181.436 53.1421 181.525C53.1421 181.97 53.0531 182.415 52.8751 182.771C52.6972 183.128 52.3413 183.662 51.8074 184.285C52.1633 184.107 52.5192 184.018 53.0531 184.018C53.231 184.018 53.409 184.018 53.587 184.018C53.6759 184.018 53.9429 184.107 54.2988 184.196C55.0106 184.374 55.4555 184.463 55.7224 184.463C56.0784 184.73 56.6122 184.552 57.413 184.196Z"/>
<path stroke-width="2" stroke="#151B38" d="M321.057 83.4135V391.874C321.057 401.507 313.224 409.34 303.591 409.34H149.996C145.127 409.34 140.787 407.329 137.611 404.153C134.435 400.977 132.53 396.637 132.53 391.768V83.4135C132.53 73.7807 140.363 65.9475 149.996 65.9475H303.591C306.449 65.9475 309.096 66.5826 311.53 67.8528C317.246 70.7109 321.057 76.6388 321.057 83.4135Z"/>
<path stroke-width="2" stroke="#151B38" d="M321.057 83.4135V391.874C321.057 401.507 313.224 409.34 303.591 409.34H149.996C145.127 409.34 140.787 407.329 137.611 404.153L311.53 67.8528C317.246 70.7109 321.057 76.6388 321.057 83.4135Z"/>
<path stroke-width="2" stroke="#151B38" d="M132.424 162.169H129.884C127.767 162.169 125.967 160.476 125.967 158.253V125.226C125.967 123.109 127.661 121.309 129.884 121.309H132.424V162.169Z"/>
<path stroke-width="2" stroke="#151B38" d="M321.057 151.478H323.174C324.974 151.478 326.35 150.102 326.35 148.302V121.415C326.35 119.616 324.974 118.24 323.174 118.24H321.057V151.478Z"/>
<path stroke-width="2" stroke="#151B38" d="M132.424 208.428H129.884C127.767 208.428 125.967 206.734 125.967 204.511V171.485C125.967 169.367 127.661 167.568 129.884 167.568H132.424V208.428Z"/>
<path stroke-width="2" stroke="#151B38" fill="#FAFCFE" d="M312.377 82.6725V392.721C312.377 397.167 308.778 400.766 304.332 400.766H149.255C145.974 400.766 143.116 398.755 141.845 395.896C141.422 394.944 141.21 393.885 141.21 392.721V82.6725C141.21 78.2266 144.809 74.6275 149.255 74.6275H304.438C305.602 74.6275 306.767 74.8393 307.72 75.3685C310.366 76.6388 312.377 79.391 312.377 82.6725Z"/>
<path fill="#CAE6FE" d="M296.499 343.498H202.077C200.383 343.498 199.007 342.122 199.007 340.429C199.007 338.735 200.383 337.359 202.077 337.359H296.499C298.193 337.359 299.569 338.735 299.569 340.429C299.675 342.016 298.298 343.498 296.499 343.498Z"/>
<path fill="#CAE6FE" d="M296.499 356.942H202.077C200.383 356.942 199.007 355.566 199.007 353.872C199.007 352.178 200.383 350.802 202.077 350.802H296.499C298.193 350.802 299.569 352.178 299.569 353.872C299.675 355.566 298.298 356.942 296.499 356.942Z"/>
<path fill="#CAE6FE" d="M296.499 370.385H202.077C200.383 370.385 199.007 369.009 199.007 367.316C199.007 365.622 200.383 364.246 202.077 364.246H296.499C298.193 364.246 299.569 365.622 299.569 367.316C299.675 369.009 298.298 370.385 296.499 370.385Z"/>
<path fill="#CAE6FE" d="M190.538 337.253H157.406V370.385H190.538V337.253Z"/>
<path fill="#CAE6FE" d="M211.921 125.544H160.476C158.782 125.544 157.406 126.92 157.406 128.613C157.406 130.307 158.782 131.683 160.476 131.683H211.921C213.615 131.683 214.991 130.307 214.991 128.613C215.097 126.92 213.721 125.544 211.921 125.544Z"/>
<path fill="#CAE6FE" d="M211.921 138.987H160.476C158.782 138.987 157.406 140.363 157.406 142.057C157.406 143.751 158.782 145.127 160.476 145.127H211.921C213.615 145.127 214.991 143.751 214.991 142.057C215.097 140.363 213.721 138.987 211.921 138.987Z"/>
<path fill="#CAE6FE" d="M211.921 152.431H160.476C158.782 152.431 157.406 153.807 157.406 155.501C157.406 157.194 158.782 158.57 160.476 158.57H211.921C213.615 158.57 214.991 157.194 214.991 155.501C215.097 153.913 213.721 152.431 211.921 152.431Z"/>
<path fill="#CAE6FE" d="M296.393 125.544H244.948C243.254 125.544 241.878 126.92 241.878 128.613C241.878 130.307 243.254 131.683 244.948 131.683H296.393C298.087 131.683 299.463 130.307 299.463 128.613C299.569 126.92 298.193 125.544 296.393 125.544Z"/>
<path fill="#CAE6FE" d="M296.393 138.987H244.948C243.254 138.987 241.878 140.363 241.878 142.057C241.878 143.751 243.254 145.127 244.948 145.127H296.393C298.087 145.127 299.463 143.751 299.463 142.057C299.569 140.363 298.193 138.987 296.393 138.987Z"/>
<path fill="#CAE6FE" d="M296.393 152.431H244.948C243.254 152.431 241.878 153.807 241.878 155.501C241.878 157.194 243.254 158.57 244.948 158.57H296.393C298.087 158.57 299.463 157.194 299.463 155.501C299.569 153.913 298.193 152.431 296.393 152.431Z"/>
<path stroke-width="2" stroke="#151B38" d="M169.05 75.0001H284.537C285.27 75.0001 285.833 75.4841 285.948 76.171L277.667 88.8009L277.657 88.8165C275.52 92.2174 271.824 94.1709 267.813 94.171H185.775C181.778 94.171 178.069 92.1227 175.923 88.8058L175.92 88.8009L167.642 76.1769C167.768 75.5373 168.347 75.0001 169.05 75.0001Z"/>
<path fill="#151B38" d="M254.686 85.75H184.399C183.023 85.75 181.753 84.5856 181.753 83.1036C181.753 81.7275 182.917 80.4572 184.399 80.4572H254.686C256.062 80.4572 257.333 81.6216 257.333 83.1036C257.227 84.5856 256.062 85.75 254.686 85.75Z"/>
<path fill="#151B38" d="M270.988 82.9978C270.988 84.6914 269.612 86.0675 267.918 86.0675C266.225 86.0675 264.848 84.6914 264.848 82.9978C264.848 81.3041 266.225 79.928 267.918 79.928C269.612 79.928 270.988 81.3041 270.988 82.9978Z"/>
<path stroke-width="2" stroke="#151B38" fill="white" d="M300.5 228V299H154.5V228H300.5Z"/>
<path stroke-width="2" stroke="#151B38" d="M288.953 202.653L299.546 227.858H154.788L165.478 202.653H288.953Z"/>
<path stroke-width="2" stroke="#151B38" fill="#FAFCFE" d="M236.855 265V298.144H217.579V265H236.855Z"/>
<path stroke-width="2" stroke="#151B38" fill="#FAFCFE" d="M232.775 281.844C233.543 281.844 234.256 282.117 234.779 282.64C235.301 283.162 235.574 283.875 235.574 284.644C235.573 286.148 234.279 287.442 232.775 287.442C231.27 287.442 229.975 286.148 229.975 284.644C229.975 283.139 231.27 281.844 232.775 281.844Z"/>
<path stroke-width="2" stroke="#151B38" fill="#151B38" d="M240.878 263.308V263.366C240.878 263.705 240.647 263.954 240.29 263.954H214.038C213.744 263.954 213.45 263.661 213.45 263.366V263.308H240.878Z"/>
<path stroke-width="2" stroke="#151B38" fill="#151B38" d="M150.208 224.036H302.321C303.674 224.036 304.814 225.176 304.814 226.529V227.752H147.715V226.529C147.715 225.176 148.855 224.036 150.208 224.036Z"/>
<rect fill="white" height="25" width="13" y="260" x="167"/>
<mask fill="white" id="path-49-inside-1_1_780">
<path d="M166.298 260.085V286.972H180.588V260.085H166.298ZM168.097 261.779H178.894V272.576H168.097V261.779ZM168.097 285.278V274.481H178.894V285.278H168.097Z"/>
</mask>
<path mask="url(#path-49-inside-1_1_780)" fill="#151B38" d="M166.298 260.085V258.085H164.298V260.085H166.298ZM166.298 286.972H164.298V288.972H166.298V286.972ZM180.588 286.972V288.972H182.588V286.972H180.588ZM180.588 260.085H182.588V258.085H180.588V260.085ZM168.097 261.779V259.779H166.097V261.779H168.097ZM178.894 261.779H180.894V259.779H178.894V261.779ZM178.894 272.576V274.576H180.894V272.576H178.894ZM168.097 272.576H166.097V274.576H168.097V272.576ZM168.097 285.278H166.097V287.278H168.097V285.278ZM168.097 274.481V272.481H166.097V274.481H168.097ZM178.894 274.481H180.894V272.481H178.894V274.481ZM178.894 285.278V287.278H180.894V285.278H178.894ZM166.298 260.085H164.298V286.972H166.298H168.298V260.085H166.298ZM166.298 286.972V288.972H180.588V286.972V284.972H166.298V286.972ZM180.588 286.972H182.588V260.085H180.588H178.588V286.972H180.588ZM180.588 260.085V258.085H166.298V260.085V262.085H180.588V260.085ZM168.097 261.779V263.779H178.894V261.779V259.779H168.097V261.779ZM178.894 261.779H176.894V272.576H178.894H180.894V261.779H178.894ZM178.894 272.576V270.576H168.097V272.576V274.576H178.894V272.576ZM168.097 272.576H170.097V261.779H168.097H166.097V272.576H168.097ZM168.097 285.278H170.097V274.481H168.097H166.097V285.278H168.097ZM168.097 274.481V276.481H178.894V274.481V272.481H168.097V274.481ZM178.894 274.481H176.894V285.278H178.894H180.894V274.481H178.894ZM178.894 285.278V283.278H168.097V285.278V287.278H178.894V285.278Z"/>
<path stroke-width="2" stroke="#151B38" fill="#151B38" d="M182.339 258.968C182.329 258.98 182.319 258.992 182.31 259.001C182.261 259.047 182.19 259.085 182.07 259.085H164.922C164.851 259.085 164.789 259.058 164.735 259.001C164.725 258.99 164.717 258.979 164.709 258.968H182.339Z"/>
<rect fill="white" height="25" width="13" y="260" x="277.349"/>
<mask fill="white" id="path-53-inside-2_1_780">
<path d="M276.646 260.085V286.972H290.937V260.085H276.646ZM278.446 261.779H289.243V272.576H278.446V261.779ZM278.446 285.278V274.481H289.243V285.278H278.446Z"/>
</mask>
<path mask="url(#path-53-inside-2_1_780)" fill="#151B38" d="M276.646 260.085V258.085H274.646V260.085H276.646ZM276.646 286.972H274.646V288.972H276.646V286.972ZM290.937 286.972V288.972H292.937V286.972H290.937ZM290.937 260.085H292.937V258.085H290.937V260.085ZM278.446 261.779V259.779H276.446V261.779H278.446ZM289.243 261.779H291.243V259.779H289.243V261.779ZM289.243 272.576V274.576H291.243V272.576H289.243ZM278.446 272.576H276.446V274.576H278.446V272.576ZM278.446 285.278H276.446V287.278H278.446V285.278ZM278.446 274.481V272.481H276.446V274.481H278.446ZM289.243 274.481H291.243V272.481H289.243V274.481ZM289.243 285.278V287.278H291.243V285.278H289.243ZM276.646 260.085H274.646V286.972H276.646H278.646V260.085H276.646ZM276.646 286.972V288.972H290.937V286.972V284.972H276.646V286.972ZM290.937 286.972H292.937V260.085H290.937H288.937V286.972H290.937ZM290.937 260.085V258.085H276.646V260.085V262.085H290.937V260.085ZM278.446 261.779V263.779H289.243V261.779V259.779H278.446V261.779ZM289.243 261.779H287.243V272.576H289.243H291.243V261.779H289.243ZM289.243 272.576V270.576H278.446V272.576V274.576H289.243V272.576ZM278.446 272.576H280.446V261.779H278.446H276.446V272.576H278.446ZM278.446 285.278H280.446V274.481H278.446H276.446V285.278H278.446ZM278.446 274.481V276.481H289.243V274.481V272.481H278.446V274.481ZM289.243 274.481H287.243V285.278H289.243H291.243V274.481H289.243ZM289.243 285.278V283.278H278.446V285.278V287.278H289.243V285.278Z"/>
<path stroke-width="2" stroke="#151B38" fill="#151B38" d="M292.688 258.968C292.677 258.98 292.668 258.992 292.658 259.001C292.609 259.047 292.539 259.085 292.419 259.085H275.271C275.2 259.085 275.138 259.058 275.084 259.001C275.074 258.99 275.066 258.979 275.058 258.968H292.688Z"/>
<path stroke-width="2" stroke="#151B38" fill="#27C499" d="M189.01 194.079V210.71H174.496V194.079H189.01Z"/>
<path stroke-width="2" stroke="#151B38" d="M192.397 189V190.223C192.397 190.563 192.389 190.72 192.342 190.859L192.327 190.902L192.318 190.946C191.996 192.314 190.795 193.352 189.268 193.352H174.025C172.588 193.351 171.294 192.298 170.976 190.946L170.966 190.902L170.951 190.859L170.923 190.749C170.901 190.63 170.897 190.478 170.897 190.223V189H192.397Z"/>
<path stroke-width="2" stroke="#151B38" fill="#151B38" d="M149.726 299H305.274C305.394 299 305.442 299.038 305.456 299.052C305.469 299.064 305.5 299.102 305.5 299.2V300.8C305.5 300.899 305.469 300.936 305.456 300.948C305.442 300.962 305.394 301 305.274 301H149.726C149.606 301 149.558 300.962 149.544 300.948C149.531 300.936 149.5 300.899 149.5 300.8V299.2C149.5 299.102 149.531 299.064 149.544 299.052C149.558 299.038 149.606 299 149.726 299Z"/>
<path stroke-width="2" stroke="#151B38" fill="#27C499" d="M211.565 240V251.798H194.547V240H211.565Z"/>
<path stroke-width="2" stroke="#151B38" fill="#27C499" d="M261.909 240V251.798H244.892V240H261.909Z"/>
<mask fill="white" id="path-61-inside-3_1_780">
<path d="M212.624 240.189H193.606C193.072 240.189 192.656 239.773 192.656 239.238V239H213.516V239.238C213.516 239.773 213.1 240.189 212.624 240.189Z"/>
</mask>
<path mask="url(#path-61-inside-3_1_780)" fill="#151B38" d="M192.656 239V237H190.656V239H192.656ZM213.516 239H215.516V237H213.516V239ZM212.624 240.189V238.189H193.606V240.189V242.189H212.624V240.189ZM193.606 240.189V238.189C194.177 238.189 194.656 238.669 194.656 239.238H192.656H190.656C190.656 240.877 191.966 242.189 193.606 242.189V240.189ZM192.656 239.238H194.656V239H192.656H190.656V239.238H192.656ZM192.656 239V241H213.516V239V237H192.656V239ZM213.516 239H211.516V239.238H213.516H215.516V239H213.516ZM213.516 239.238H211.516C211.516 238.754 211.911 238.189 212.624 238.189V240.189V242.189C214.288 242.189 215.516 240.792 215.516 239.238H213.516Z"/>
<mask fill="white" id="path-63-inside-4_1_780">
<path d="M262.969 240.189H243.951C243.416 240.189 243 239.773 243 239.238V239H263.86V239.238C263.86 239.773 263.444 240.189 262.969 240.189Z"/>
</mask>
<path mask="url(#path-63-inside-4_1_780)" fill="#151B38" d="M243 239V237H241V239H243ZM263.86 239H265.86V237H263.86V239ZM262.969 240.189V238.189H243.951V240.189V242.189H262.969V240.189ZM243.951 240.189V238.189C244.522 238.189 245 238.669 245 239.238H243H241C241 240.877 242.311 242.189 243.951 242.189V240.189ZM243 239.238H245V239H243H241V239.238H243ZM243 239V241H263.86V239V237H243V239ZM263.86 239H261.86V239.238H263.86H265.86V239H263.86ZM263.86 239.238H261.86C261.86 238.754 262.256 238.189 262.969 238.189V240.189V242.189C264.632 242.189 265.86 240.792 265.86 239.238H263.86Z"/>
<path fill="#FAFCFE" d="M310.613 82.6723V392.721C310.613 397.167 307.861 400.766 304.58 400.766H187.504C184.964 400.766 182.847 398.754 182 395.896L307.014 75.3684C309.131 76.6386 310.613 79.3908 310.613 82.6723Z" opacity="0.3"/>
</svg>