<svg xmlns="http://www.w3.org/2000/svg" fill="none" viewBox="13.183227445997458 61.138799999999996 514.6785260482847 272.394" style="max-height: 500px" width="514.6785260482847" height="272.394">
<g clip-path="url(#clip0_1_512)">
<path stroke-width="2" stroke="#151B38" d="M462.387 74.933V324.28C462.387 328.428 459.047 331.885 454.786 331.885H76.5846C72.4387 331.885 68.9838 328.543 68.9838 324.28V74.933C68.9838 70.7849 72.3235 67.3281 76.5846 67.3281H454.901C459.047 67.3281 462.387 70.6697 462.387 74.933Z"/>
<path stroke-width="2" stroke="#151B38" fill="#FAFCFE" d="M452.022 85.5337V313.449C452.022 317.712 448.567 321.169 444.306 321.169H87.1799C86.2585 321.169 85.3372 321.053 84.5311 320.708C81.652 319.671 79.579 316.79 79.579 313.564V85.5337C79.579 81.2703 83.0339 77.8136 87.1799 77.8136H444.306C445.342 77.8136 446.264 78.044 447.185 78.3897C450.064 79.6572 452.022 82.4226 452.022 85.5337Z"/>
<path fill="#CAE6FE" d="M451 85.4V95H81V85.497C81 81.9091 84.4312 79 88.6631 79H443.337C447.569 79 451 81.9091 451 85.4Z"/>
<path fill="#27C499" d="M418.289 90.0547C420.31 90.0547 421.949 88.6655 421.949 86.9517C421.949 85.238 420.31 83.8487 418.289 83.8487C416.268 83.8487 414.629 85.238 414.629 86.9517C414.629 88.6655 416.268 90.0547 418.289 90.0547Z"/>
<path fill="#27C499" d="M404.564 90.0547C406.586 90.0547 408.224 88.6655 408.224 86.9517C408.224 85.238 406.586 83.8487 404.564 83.8487C402.543 83.8487 400.904 85.238 400.904 86.9517C400.904 88.6655 402.543 90.0547 404.564 90.0547Z"/>
<path fill="#27C499" d="M435.674 86.9517C435.674 88.6972 434.073 90.0547 432.014 90.0547C429.955 90.0547 428.354 88.6972 428.354 86.9517C428.354 85.2063 429.955 83.8487 432.014 83.8487C433.958 83.8487 435.674 85.2063 435.674 86.9517Z"/>
<path stroke-width="2" stroke="#151B38" fill="#27C499" d="M170.098 123.327H149.254V146.833H170.098V123.327Z"/>
<path stroke-width="2" stroke="#151B38" fill="white" d="M174.36 116V118.765C174.36 119.226 174.36 119.572 174.244 119.918C173.669 122.222 171.711 123.835 169.177 123.835H149.945C147.526 123.835 145.453 122.107 144.877 119.918C144.762 119.572 144.762 119.111 144.762 118.765V116H174.36Z"/>
<path stroke-width="2" stroke="black" fill="white" d="M340.773 181.977H105.376V181.862L110.904 174.372L138.428 136.348H307.72L335.245 174.372L340.773 181.862V181.977Z"/>
<path stroke="black" fill="white" d="M340.773 181.977H105.376V277.153H340.773V181.977Z"/>
<path stroke="black" fill="#FAFCFE" d="M340.773 181.977H105.376V187.969H340.773V181.977Z"/>
<path stroke="black" fill="black" d="M340.773 184.973H105.376V187.969H340.773V184.973Z" opacity="0.2"/>
<path stroke="black" fill="#27C499" d="M262 187.969H185.761V195.458H262V187.969Z"/>
<path stroke="black" fill="white" d="M261.885 162.273V277.268H185.761V162.273L191.634 158.241L195.435 155.59L197.623 154.208L200.041 152.479L205.799 148.562L211.788 144.529L223.88 136.348L235.857 144.529L241.846 148.562L247.604 152.479L250.023 154.208L252.211 155.59L256.011 158.241L261.885 162.273Z"/>
<path stroke="black" fill="#27C499" d="M272.62 162H263.538H254.172L222.857 140.892L191.448 162H182.082H173L222.857 128.397L272.62 162Z"/>
<path fill="#151B38" d="M117.929 236.19V214.067C117.929 209.343 121.729 205.54 126.451 205.54C131.173 205.54 134.973 209.343 134.973 214.067V236.19H117.929Z"/>
<path fill="#CAE6FE" d="M133.591 214.067V234.692H119.311V214.067C119.311 210.149 122.536 206.923 126.451 206.923C128.294 206.923 129.906 207.614 131.173 208.767C131.288 208.882 131.403 208.997 131.519 208.997C132.325 209.804 133.016 210.841 133.361 211.993C133.476 212.684 133.591 213.376 133.591 214.067Z"/>
<path fill="#151B38" d="M134.366 221.058H118.366V222.558H134.366V221.058Z"/>
<path stroke="black" fill="black" d="M133.591 214.067V215.795C133.591 215.104 133.476 214.413 133.246 213.721C132.9 212.569 132.325 211.532 131.403 210.725C131.288 210.61 131.173 210.495 131.058 210.495C129.791 209.343 128.179 208.651 126.336 208.651C122.42 208.651 119.196 211.878 119.196 215.795V214.067C119.196 210.149 122.42 206.923 126.336 206.923C128.179 206.923 129.791 207.614 131.058 208.767C131.173 208.882 131.288 208.997 131.403 208.997C132.209 209.804 132.9 210.841 133.246 211.993C133.476 212.684 133.591 213.376 133.591 214.067Z" opacity="0.2"/>
<path fill="#151B38" d="M148.563 236.133V214.009C148.563 209.285 152.363 205.483 157.085 205.483C161.807 205.483 165.607 209.285 165.607 214.009V236.133H148.563Z"/>
<path fill="#CAE6FE" d="M164.225 214.009V234.635H149.945V214.009C149.945 210.092 153.169 206.865 157.085 206.865C158.928 206.865 160.54 207.557 161.807 208.709C161.922 208.824 162.037 208.94 162.152 208.94C162.958 209.746 163.649 210.783 163.995 211.935C164.11 212.627 164.225 213.318 164.225 214.009Z"/>
<path fill="#151B38" d="M165 221H149V222.5H165V221Z"/>
<path stroke="black" fill="black" d="M164.225 214.009V215.738C164.225 215.046 164.11 214.355 163.88 213.664C163.534 212.512 162.958 211.474 162.037 210.668C161.922 210.553 161.807 210.437 161.692 210.437C160.425 209.285 158.812 208.594 156.97 208.594C153.054 208.594 149.83 211.82 149.83 215.738V214.009C149.83 210.092 153.054 206.865 156.97 206.865C158.812 206.865 160.425 207.557 161.692 208.709C161.807 208.824 161.922 208.94 162.037 208.94C162.843 209.746 163.534 210.783 163.88 211.935C164.11 212.627 164.225 213.318 164.225 214.009Z" opacity="0.2"/>
<path fill="#151B38" d="M282.154 236.219V214.096C282.154 209.371 285.954 205.569 290.676 205.569C295.398 205.569 299.198 209.371 299.198 214.096V236.219H282.154Z"/>
<path fill="#CAE6FE" d="M297.816 214.096V234.721H283.536V214.096C283.536 210.178 286.761 206.952 290.676 206.952C292.519 206.952 294.131 207.643 295.398 208.795C295.513 208.911 295.628 209.026 295.743 209.026C296.55 209.832 297.24 210.869 297.586 212.022C297.701 212.713 297.816 213.404 297.816 214.096Z"/>
<path fill="#151B38" d="M298.591 221.086H282.591V222.586H298.591V221.086Z"/>
<path stroke="black" fill="black" d="M297.816 214.096V215.824C297.816 215.133 297.701 214.441 297.471 213.75C297.125 212.598 296.549 211.561 295.628 210.754C295.513 210.639 295.398 210.524 295.283 210.524C294.016 209.371 292.404 208.68 290.561 208.68C286.645 208.68 283.421 211.906 283.421 215.824V214.096C283.421 210.178 286.645 206.952 290.561 206.952C292.404 206.952 294.016 207.643 295.283 208.795C295.398 208.911 295.513 209.026 295.628 209.026C296.434 209.832 297.125 210.869 297.471 212.022C297.701 212.713 297.816 213.404 297.816 214.096Z" opacity="0.2"/>
<path fill="#151B38" d="M312.788 236.161V214.038C312.788 209.314 316.588 205.512 321.31 205.512C326.032 205.512 329.832 209.314 329.832 214.038V236.161H312.788Z"/>
<path fill="#CAE6FE" d="M328.45 214.038V234.663H314.17V214.038C314.17 210.121 317.394 206.894 321.31 206.894C323.153 206.894 324.765 207.586 326.032 208.738C326.147 208.853 326.262 208.968 326.377 208.968C327.183 209.775 327.874 210.812 328.22 211.964C328.335 212.655 328.45 213.347 328.45 214.038Z"/>
<path fill="#151B38" d="M329.225 221.029H313.225V222.529H329.225V221.029Z"/>
<path stroke="black" fill="black" d="M328.45 214.038V215.767C328.45 215.075 328.335 214.384 328.105 213.692C327.759 212.54 327.183 211.503 326.262 210.697C326.147 210.581 326.032 210.466 325.916 210.466C324.65 209.314 323.037 208.623 321.195 208.623C317.279 208.623 314.054 211.849 314.054 215.767V214.038C314.054 210.121 317.279 206.894 321.195 206.894C323.037 206.894 324.65 207.586 325.916 208.738C326.032 208.853 326.147 208.968 326.262 208.968C327.068 209.775 327.759 210.812 328.105 211.964C328.335 212.655 328.45 213.347 328.45 214.038Z" opacity="0.2"/>
<path fill="#151B38" d="M352.059 281.186H94.7807C93.6291 281.186 92.7078 280.264 92.7078 279.112V277.959C92.7078 276.807 93.6291 275.885 94.7807 275.885H352.059C353.211 275.885 354.132 276.807 354.132 277.959V279.112C354.132 280.264 353.211 281.186 352.059 281.186Z"/>
<path stroke="#151B38" fill="#FAFCFE" d="M236.664 227.952H211.212V271.852H236.664V227.952Z"/>
<path stroke="#151B38" fill="white" d="M234 270V231H214V270H234Z"/>
<path stroke="#151B38" fill="#FAFCFE" d="M231.685 250.844C231.685 251.881 230.879 252.687 229.843 252.687C228.806 252.687 228 251.881 228 250.844C228 249.807 228.806 249 229.843 249C230.879 249 231.685 249.807 231.685 250.844Z"/>
<path stroke="#151B38" fill="#FAFCFE" d="M239.312 268.856H208.563V271.852H239.312V268.856Z"/>
<path stroke="#151B38" fill="#FAFCFE" d="M236.524 228.873H211.303C210.036 228.873 209 227.836 209 226.569V225.993H238.713V226.569C238.828 227.952 237.791 228.873 236.524 228.873Z"/>
<path stroke="#151B38" fill="#FAFCFE" d="M242.652 271.852H205.109V275.885H242.652V271.852Z"/>
<path stroke-width="1.5" stroke="#151B38" fill="white" d="M240 182H208V208H240V182Z"/>
<path fill="#151B38" d="M240 194H208V195.5H240V194Z"/>
<path stroke="#151B38" fill="white" d="M239.504 182H207.595C206.698 182 206 181.3 206 180.4V180H241V180.4C241 181.3 240.302 182 239.504 182Z"/>
<path stroke="#151B38" fill="#27C499" d="M174.82 275.77V253.647V251.342C174.82 249.614 173.323 248.116 171.596 248.116C169.868 248.116 168.371 249.614 168.371 251.342V263.095H163.304V251.342C163.304 249.614 161.807 248.116 160.079 248.116C158.352 248.116 156.855 249.614 156.855 251.342V263.095H151.787V251.342C151.787 249.614 150.29 248.116 148.563 248.116C146.835 248.116 145.338 249.614 145.338 251.342V263.095H140.271V251.342C140.271 249.614 138.774 248.116 137.046 248.116C135.319 248.116 133.822 249.614 133.822 251.342V263.095H128.754V251.342C128.754 249.614 127.257 248.116 125.53 248.116C123.802 248.116 122.305 249.614 122.305 251.342V263.095H117.238V251.342C117.238 249.614 115.741 248.116 114.013 248.116C112.286 248.116 110.789 249.614 110.789 251.342V275.77H117.238V269.433H122.305V275.77H128.754V269.433H133.822V275.77H140.271V269.433H145.338V275.77H151.787V269.433H156.855V275.77H163.304V269.433H168.371V275.77H174.82Z"/>
<path stroke="#151B38" fill="#27C499" d="M336.972 275.77V253.647V251.342C336.972 249.614 335.475 248.116 333.748 248.116C332.02 248.116 330.523 249.614 330.523 251.342V263.095H325.456V251.342C325.456 249.614 323.959 248.116 322.231 248.116C320.504 248.116 319.007 249.614 319.007 251.342V263.095H313.939V251.342C313.939 249.614 312.442 248.116 310.715 248.116C308.987 248.116 307.49 249.614 307.49 251.342V263.095H302.423V251.342C302.423 249.614 300.926 248.116 299.198 248.116C297.471 248.116 295.974 249.614 295.974 251.342V263.095H290.906V251.342C290.906 249.614 289.409 248.116 287.682 248.116C285.954 248.116 284.457 249.614 284.457 251.342V263.095H279.39V251.342C279.39 249.614 277.893 248.116 276.165 248.116C274.438 248.116 272.941 249.614 272.941 251.342V275.77H279.39V269.433H284.457V275.77H290.906V269.433H295.974V275.77H302.423V269.433H307.49V275.77H313.939V269.433H319.007V275.77H325.456V269.433H330.523V275.77H336.972Z"/>
<path fill="#27C499" d="M328.911 120.677V147.64C328.911 149.368 327.529 150.751 325.801 150.751H298.738C297.586 150.751 296.55 150.06 295.974 149.138C295.974 149.023 295.859 148.907 295.859 148.792C295.859 148.677 295.743 148.446 295.743 148.331C295.743 148.331 295.743 148.331 295.743 148.216C295.743 147.986 295.743 147.87 295.743 147.64V120.677C295.743 119.064 297.01 117.797 298.507 117.566C298.623 117.566 298.738 117.566 298.853 117.566H325.917C326.262 117.566 326.492 117.566 326.838 117.681C327.99 118.142 328.911 119.295 328.911 120.677Z"/>
<path fill="#CAE6FE" d="M428.759 177.598H360.236C358.623 177.598 357.241 176.216 357.241 174.603C357.241 172.989 358.623 171.607 360.236 171.607H428.759C430.371 171.607 431.753 172.989 431.753 174.603C431.753 176.331 430.371 177.598 428.759 177.598Z"/>
<path fill="#CAE6FE" d="M428.759 192.578H360.236C358.623 192.578 357.241 191.195 357.241 189.582C357.241 187.969 358.623 186.586 360.236 186.586H428.759C430.371 186.586 431.753 187.969 431.753 189.582C431.753 191.195 430.371 192.578 428.759 192.578Z"/>
<path fill="#CAE6FE" d="M428.759 207.442H360.236C358.623 207.442 357.241 206.059 357.241 204.446C357.241 202.833 358.623 201.45 360.236 201.45H428.759C430.371 201.45 431.753 202.833 431.753 204.446C431.753 206.059 430.371 207.442 428.759 207.442Z"/>
<path fill="#CAE6FE" d="M428.759 222.306H360.236C358.623 222.306 357.241 220.923 357.241 219.31C357.241 217.697 358.623 216.314 360.236 216.314H428.759C430.371 216.314 431.753 217.697 431.753 219.31C431.753 220.923 430.371 222.306 428.759 222.306Z"/>
<path fill="#CAE6FE" d="M428.759 237.17H360.236C358.623 237.17 357.241 235.787 357.241 234.174C357.241 232.561 358.623 231.178 360.236 231.178H428.759C430.371 231.178 431.753 232.561 431.753 234.174C431.753 235.787 430.371 237.17 428.759 237.17Z"/>
<path fill="#CAE6FE" d="M428.759 252.034H360.236C358.623 252.034 357.241 250.651 357.241 249.038C357.241 247.425 358.623 246.042 360.236 246.042H428.759C430.371 246.042 431.753 247.425 431.753 249.038C431.753 250.651 430.371 252.034 428.759 252.034Z"/>
<path fill="#FAFCFE" d="M317.279 139.344L318.546 142.109C318.085 142.34 317.625 142.57 317.049 142.685C316.473 142.8 315.897 142.916 315.436 142.916C314.745 142.916 313.824 142.8 312.672 142.455C311.521 142.109 310.715 141.994 310.139 141.994C309.218 141.994 308.296 142.34 307.26 143.031L305.993 140.265C306.799 139.689 307.49 138.998 307.836 138.307C308.181 137.615 308.411 136.924 308.411 136.348C308.411 136.117 308.411 135.887 308.411 135.657H305.993V133.122H307.836C307.49 132.2 307.375 131.278 307.375 130.356C307.375 129.55 307.605 128.743 308.066 127.936C308.527 127.13 309.102 126.669 310.024 126.208C310.83 125.862 311.751 125.632 312.788 125.632C314.285 125.632 315.436 125.978 316.358 126.784C317.279 127.591 317.74 128.628 317.97 130.01L314.861 130.471C314.745 129.665 314.4 129.089 314.054 128.743C313.709 128.397 313.248 128.167 312.672 128.167C312.097 128.167 311.521 128.397 311.175 128.743C310.83 129.204 310.6 129.665 310.6 130.241C310.6 130.587 310.599 130.932 310.715 131.508C310.83 132.085 310.945 132.545 311.175 132.891H314.745V135.426H311.751C311.751 135.541 311.751 135.772 311.751 135.887C311.751 136.463 311.636 137.039 311.406 137.5C311.175 137.961 310.715 138.652 310.024 139.459C310.484 139.228 310.945 139.113 311.636 139.113C311.866 139.113 312.097 139.113 312.327 139.113C312.442 139.113 312.788 139.228 313.248 139.344C314.17 139.574 314.745 139.689 315.091 139.689C315.552 140.035 316.243 139.805 317.279 139.344Z"/>
<path fill="#FAFCFE" d="M450.491 163.029V390.944C450.491 395.207 447.036 398.664 442.775 398.664H85.6488C84.7275 398.664 83.8062 398.548 83 398.203L445.654 156C448.533 157.152 450.491 159.918 450.491 163.029Z" opacity="0.3"/>
<path fill="#151B38" d="M499.815 169.381C499.815 172.492 497.282 174.911 494.287 174.911C491.178 174.911 488.76 172.376 488.76 169.381C488.76 166.27 491.293 163.85 494.287 163.85C497.282 163.85 499.815 166.27 499.815 169.381ZM490.372 169.381C490.372 171.455 492.099 173.183 494.172 173.183C496.245 173.183 497.973 171.455 497.973 169.381C497.973 167.307 496.245 165.578 494.172 165.578C492.099 165.578 490.372 167.307 490.372 169.381Z"/>
<path fill="#151B38" d="M505.343 141.151C505.343 144.262 502.81 146.681 499.815 146.681C496.706 146.681 494.287 144.146 494.287 141.151C494.287 138.039 496.821 135.62 499.815 135.62C502.925 135.62 505.343 138.155 505.343 141.151ZM496.015 141.151C496.015 143.225 497.742 144.953 499.815 144.953C501.888 144.953 503.616 143.225 503.616 141.151C503.616 139.076 501.888 137.348 499.815 137.348C497.742 137.348 496.015 139.076 496.015 141.151Z"/>
<path fill="#27C499" d="M516.745 127.9C516.745 128.361 516.399 128.821 515.823 128.821H512.023C511.562 128.821 511.102 128.476 511.102 127.9C511.102 127.439 511.447 126.978 512.023 126.978H515.823C516.284 126.978 516.745 127.324 516.745 127.9Z"/>
<path fill="#27C499" d="M523.424 127.9C523.424 128.361 523.079 128.821 522.503 128.821H518.703C518.242 128.821 517.781 128.476 517.781 127.9C517.781 127.439 518.127 126.978 518.703 126.978H522.503C523.079 126.978 523.424 127.324 523.424 127.9Z"/>
<path fill="#27C499" d="M518.127 122.484V125.941C518.127 126.402 517.781 126.863 517.205 126.863C516.745 126.863 516.284 126.517 516.284 125.941V122.484C516.284 122.023 516.629 121.562 517.205 121.562C517.781 121.562 518.127 122.023 518.127 122.484Z"/>
<path fill="#27C499" d="M518.127 129.743V133.2C518.127 133.661 517.781 134.122 517.205 134.122C516.745 134.122 516.284 133.776 516.284 133.2V129.743C516.284 129.282 516.629 128.821 517.205 128.821C517.781 128.937 518.127 129.282 518.127 129.743Z"/>
<path fill="#27C499" d="M510.41 157.397C510.41 157.858 510.065 158.319 509.489 158.319H505.689C505.228 158.319 504.767 157.973 504.767 157.397C504.767 156.821 505.113 156.475 505.689 156.475H509.489C510.065 156.591 510.41 156.936 510.41 157.397Z"/>
<path fill="#27C499" d="M517.205 157.397C517.205 157.858 516.86 158.319 516.284 158.319H512.483C512.023 158.319 511.562 157.973 511.562 157.397C511.562 156.821 511.907 156.475 512.483 156.475H516.284C516.744 156.591 517.205 156.936 517.205 157.397Z"/>
<path fill="#27C499" d="M511.908 152.097V155.554C511.908 156.015 511.562 156.475 510.986 156.475C510.526 156.475 510.065 156.13 510.065 155.554V152.097C510.065 151.636 510.41 151.175 510.986 151.175C511.562 151.175 511.908 151.636 511.908 152.097Z"/>
<path fill="#27C499" d="M511.908 159.356V162.813C511.908 163.274 511.562 163.735 510.986 163.735C510.526 163.735 510.065 163.389 510.065 162.813V159.356C510.065 158.895 510.41 158.434 510.986 158.434C511.562 158.549 511.908 158.895 511.908 159.356Z"/>
<path fill="#151B38" d="M48.5996 129.513C51.709 129.513 54.1275 132.048 54.1275 135.044C54.1275 138.155 51.5939 140.574 48.5996 140.574C45.4901 140.574 43.0717 138.039 43.0717 135.044C43.0717 131.933 45.4901 129.513 48.5996 129.513ZM48.5996 131.241C46.5266 131.241 44.7991 132.97 44.7991 135.044C44.7991 137.118 46.5266 138.846 48.5996 138.846C50.6725 138.846 52.4 137.118 52.4 135.044C52.4 132.97 50.6725 131.241 48.5996 131.241Z"/>
<path fill="#151B38" d="M42.9565 101.283C46.066 101.283 48.4844 103.818 48.4844 106.813C48.4844 109.925 45.9508 112.344 42.9565 112.344C39.847 112.344 37.4286 109.809 37.4286 106.813C37.4286 103.818 39.847 101.283 42.9565 101.283ZM42.9565 103.011C40.8835 103.011 39.1561 104.739 39.1561 106.813C39.1561 108.888 40.8835 110.616 42.9565 110.616C45.0295 110.616 46.7569 108.888 46.7569 106.813C46.7569 104.739 45.0295 103.011 42.9565 103.011Z"/>
<path fill="#27C499" d="M26.0272 93.4474C26.0272 93.9083 26.3727 94.3692 26.9485 94.3692H30.749C31.2096 94.3692 31.6703 94.0235 31.6703 93.4474C31.6703 92.9865 31.3248 92.5256 30.749 92.5256H26.9485C26.4879 92.6408 26.0272 92.9865 26.0272 93.4474Z"/>
<path fill="#27C499" d="M19.3477 93.4474C19.3477 93.9083 19.6932 94.3692 20.269 94.3692H24.0694C24.5301 94.3692 24.9907 94.0235 24.9907 93.4474C24.9907 92.9865 24.6452 92.5256 24.0694 92.5256H20.269C19.8083 92.6408 19.3477 92.9865 19.3477 93.4474Z"/>
<path fill="#27C499" d="M24.6453 88.1471V91.6038C24.6453 92.0647 24.9908 92.5256 25.5666 92.5256C26.0272 92.5256 26.4879 92.1799 26.4879 91.6038V88.1471C26.4879 87.6862 26.1424 87.2253 25.5666 87.2253C24.9908 87.2253 24.6453 87.6862 24.6453 88.1471Z"/>
<path fill="#27C499" d="M24.6453 95.4062V98.863C24.6453 99.3239 24.9908 99.7848 25.5666 99.7848C26.0272 99.7848 26.4879 99.4391 26.4879 98.863V95.4062C26.4879 94.9453 26.1424 94.4844 25.5666 94.4844C24.9908 94.5997 24.6453 94.9453 24.6453 95.4062Z"/>
<path fill="#27C499" d="M32.3612 123.06C32.3612 123.521 32.7067 123.982 33.2825 123.982H37.083C37.5436 123.982 38.0043 123.636 38.0043 123.06C38.0043 122.599 37.6588 122.138 37.083 122.138H33.2825C32.7067 122.254 32.3612 122.599 32.3612 123.06Z"/>
<path fill="#27C499" d="M25.5665 123.06C25.5665 123.521 25.912 123.982 26.4878 123.982H30.2883C30.7489 123.982 31.2096 123.636 31.2096 123.06C31.2096 122.599 30.8641 122.138 30.2883 122.138H26.4878C26.0272 122.254 25.5665 122.599 25.5665 123.06Z"/>
<path fill="#27C499" d="M30.8641 117.76V121.217C30.8641 121.678 31.2096 122.138 31.7855 122.138C32.2461 122.138 32.7068 121.793 32.7068 121.217V117.76C32.7068 117.299 32.3613 116.838 31.7855 116.838C31.3248 116.838 30.8641 117.184 30.8641 117.76Z"/>
<path fill="#27C499" d="M30.8641 125.019V128.476C30.8641 128.937 31.2096 129.398 31.7855 129.398C32.2461 129.398 32.7068 129.052 32.7068 128.476V125.019C32.7068 124.558 32.3613 124.097 31.7855 124.097C31.3248 124.212 30.8641 124.558 30.8641 125.019Z"/>
<path stroke="#151B38" fill="#445279" d="M50.5062 276.037L61.2568 282.671C62.5795 283.483 64.3827 283.096 65.2166 281.678L81.9158 254.526L88.8521 243.342L73.1708 233.645L69.1122 240.259L49.6309 272.004C48.7014 273.4 49.2058 275.13 50.5062 276.037Z"/>
<path stroke="#151B38" fill="#151B38" d="M69.0901 240.354C71.5682 244.861 75.707 250.46 81.9159 254.525L88.8522 243.341L73.1709 233.645L69.0901 240.354Z"/>
<path stroke="#151B38" fill="#445279" d="M60.7501 282.251L58.8242 285.33L34.0523 325.518C32.4288 328.163 28.8959 329.054 26.2505 327.43C23.6051 325.807 22.7141 322.274 24.3376 319.629L46.7188 283.218L50.9398 276.339L60.7501 282.251Z"/>
<path stroke="#151B38" fill="#445279" d="M61.5894 171.694C46.5804 195.914 53.9073 227.65 78.105 242.755C102.325 257.764 134.061 250.437 149.166 226.239C164.175 202.019 156.848 170.283 132.65 155.178C108.357 140.051 76.5984 147.474 61.5894 171.694ZM68.2763 175.87C80.9902 155.45 107.957 149.129 128.378 161.843C148.799 174.557 155.12 201.524 142.406 221.945C129.692 242.366 102.724 248.686 82.3037 235.972C61.7873 223.236 55.5623 196.291 68.2763 175.87Z"/>
<path stroke="#151B38" fill="#FAFCFE" d="M62.2063 191.993C58.3804 215.792 74.6264 238.217 98.4481 241.947C100.478 242.319 102.552 242.499 104.575 242.466C109.791 242.571 114.825 241.727 119.536 240.103C124.461 238.428 129.108 235.78 133.102 232.477C139.446 227.303 144.285 220.367 146.867 212.301C147.57 210.147 148.082 207.948 148.402 205.705C152.228 181.906 135.982 159.481 112.183 155.655C109.94 155.335 107.674 155.11 105.46 155.098C96.9112 155.023 88.8581 157.583 82.0008 161.933C77.6182 164.742 73.7714 168.281 70.6003 172.38C67.547 176.406 65.1918 180.897 63.6302 185.874C63.0229 188.051 62.5779 189.963 62.2063 191.993Z" opacity="0.5"/>
<path stroke="#151B38" fill="#FAFCFE" d="M81.9785 162.028L133.079 232.573C139.423 227.398 144.262 220.462 146.845 212.397L105.415 155.289C96.9623 155.237 88.8358 157.679 81.9785 162.028Z" opacity="0.5"/>
<path stroke="#151B38" fill="#FAFCFE" d="M63.5856 186.065L104.553 242.561C109.769 242.667 114.802 241.823 119.514 240.198L70.5557 172.571C67.5247 176.502 65.1472 181.088 63.5856 186.065Z" opacity="0.5"/>
</g>
<defs>
<clipPath id="clip0_1_512">
<rect fill="white" height="333" width="524"/>
</clipPath>
</defs>
</svg>