<svg width="22" height="24" viewBox="0 0 22 24" fill="none" xmlns="http://www.w3.org/2000/svg">
<path d="M20.5189 5.32637C20.457 5.22648 20.3714 5.14418 20.2697 5.0871C20.1682 5.03005 20.0541 5.00008 19.938 5H3.43803C3.30199 4.99989 3.16895 5.04088 3.0558 5.11779C2.94264 5.1947 2.85443 5.30406 2.80236 5.43205C2.75028 5.56002 2.73667 5.70085 2.76324 5.83672C2.78982 5.97258 2.85538 6.09734 2.95163 6.19525L6.59109 9.9L2.95163 13.6048C2.85538 13.7027 2.78982 13.8274 2.76324 13.9633C2.73667 14.0992 2.75028 14.24 2.80236 14.368C2.85443 14.4959 2.94264 14.6053 3.0558 14.6822C3.16895 14.7591 3.30199 14.8001 3.43803 14.8H14.921L12.4426 20.099C12.4011 20.1822 12.3765 20.2731 12.37 20.3662C12.3636 20.4594 12.3755 20.553 12.4051 20.6413C12.4347 20.7296 12.4813 20.811 12.5423 20.8808C12.6033 20.9506 12.6773 21.0072 12.7601 21.0474C12.8429 21.0875 12.9327 21.1104 13.0243 21.1147C13.1159 21.1189 13.2074 21.1045 13.2935 21.0723C13.3795 21.04 13.4584 20.9906 13.5253 20.9267C13.5923 20.863 13.6461 20.7862 13.6835 20.701L20.5585 6.00101C20.6083 5.89429 20.631 5.77646 20.6241 5.65851C20.6171 5.54054 20.581 5.42629 20.5189 5.32637ZM15.575 13.4H5.09749L8.04945 10.3952C8.11336 10.3302 8.16407 10.253 8.19867 10.1681C8.23328 10.0831 8.25108 9.99198 8.25108 9.9C8.25108 9.80802 8.23328 9.71693 8.19867 9.63194C8.16407 9.54696 8.11336 9.46976 8.04945 9.40475L5.09749 6.4H18.8476L15.575 13.4Z" fill="#404059" fill-opacity="0.6"/>
</svg>
