<svg width="24" height="24" viewBox="0 0 24 24" fill="none" xmlns="http://www.w3.org/2000/svg">
<mask id="mask0_1_1542" style="mask-type:luminance" maskUnits="userSpaceOnUse" x="1" y="0" width="23" height="24">
<path d="M23.714 0.800049H1.31396V23.2H23.714V0.800049Z" fill="white"/>
</mask>
<g mask="url(#mask0_1_1542)">
<path d="M22.3142 17.6001H21.6142V9.43377C21.6142 9.20337 21.5574 8.97652 21.4486 8.77337C21.3399 8.5702 21.1828 8.39701 20.9911 8.26914L13.2912 3.13551C13.0612 2.9822 12.791 2.90039 12.5146 2.90039C12.2382 2.90039 11.968 2.9822 11.738 3.13551L4.03803 8.26914C3.84621 8.3969 3.68891 8.57007 3.58008 8.77322C3.47123 8.97639 3.41426 9.20329 3.41416 9.43377V17.6001H2.71416C2.52851 17.6001 2.35046 17.6739 2.21918 17.8052C2.0879 17.9364 2.01416 18.1145 2.01416 18.3001C2.01416 18.4859 2.0879 18.6638 2.21918 18.7951C2.35046 18.9263 2.52851 19.0001 2.71416 19.0001H22.3142C22.4998 19.0001 22.6779 18.9263 22.8091 18.7951C22.9404 18.6638 23.0142 18.4859 23.0142 18.3001C23.0142 18.1145 22.9404 17.9364 22.8091 17.8052C22.6779 17.6739 22.4998 17.6001 22.3142 17.6001ZM4.81416 9.43377L12.5142 4.30013L20.2142 9.43289V17.6001H18.1142V12.7001C18.1142 12.5145 18.0404 12.3364 17.9091 12.2052C17.7779 12.0739 17.5998 12.0001 17.4142 12.0001H7.61416C7.42851 12.0001 7.25046 12.0739 7.11918 12.2052C6.9879 12.3364 6.91416 12.5145 6.91416 12.7001V17.6001H4.81416V9.43377ZM16.7142 13.4001V14.8001H13.2142V13.4001H16.7142ZM11.8142 14.8001H8.31416V13.4001H11.8142V14.8001ZM8.31416 16.2001H11.8142V17.6001H8.31416V16.2001ZM13.2142 16.2001H16.7142V17.6001H13.2142V16.2001Z" fill="#404059" fill-opacity="0.6"/>
</g>
</svg>
