<svg width="24" height="24" viewBox="0 0 24 24" fill="none" xmlns="http://www.w3.org/2000/svg">
<path d="M18.8141 13.4001H12.1029L12.3085 13.1945L14.0638 11.4392C14.7727 11.7963 15.5539 11.9866 16.3476 11.9958C17.1464 11.9979 17.9304 11.7793 18.613 11.364C20.6884 10.1075 21.8005 7.19901 21.5879 3.58351C21.578 3.41226 21.5053 3.25064 21.384 3.12935C21.2628 3.00805 21.1012 2.93551 20.93 2.92551C17.3144 2.71376 14.4059 3.82501 13.1494 5.90051C12.3304 7.25239 12.3094 8.88514 13.0733 10.4505L11.8142 11.7096L10.7458 10.6413C11.2708 9.48189 11.2332 8.27875 10.6242 7.27426C9.67306 5.70013 7.49255 4.86101 4.79055 5.01938C4.6196 5.02957 4.45831 5.10207 4.33722 5.22317C4.21612 5.34426 4.14362 5.50555 4.13343 5.67651C3.97418 8.37763 4.81418 10.5581 6.38917 11.5101C6.9161 11.8319 7.5218 12.0015 8.13917 12.0001C8.69927 11.9946 9.25173 11.8696 9.75968 11.6335L10.8237 12.7001L10.1237 13.4001H6.21418C6.02853 13.4001 5.85048 13.4739 5.7192 13.6052C5.58792 13.7364 5.51418 13.9145 5.51418 14.1001C5.51418 14.2858 5.58792 14.4638 5.7192 14.5951C5.85048 14.7264 6.02853 14.8001 6.21418 14.8001H7.0533L8.20917 20.0038C8.27693 20.3155 8.44965 20.5943 8.69844 20.7939C8.94722 20.9935 9.257 21.1015 9.57592 21.1001H15.4533C15.7722 21.1015 16.082 20.9935 16.3308 20.7939C16.5796 20.5943 16.7524 20.3155 16.82 20.0038L17.9759 14.8001H18.8141C18.9999 14.8001 19.178 14.7264 19.3092 14.5951C19.4404 14.4638 19.5141 14.2858 19.5141 14.1001C19.5141 13.9145 19.4404 13.7364 19.3092 13.6052C19.178 13.4739 18.9999 13.4001 18.8141 13.4001ZM14.3517 6.62589C15.2669 5.11563 17.4352 4.26338 20.2141 4.30101C20.2501 7.08439 19.3996 9.25176 17.8893 10.1635C16.8821 10.776 15.6668 10.7358 14.4523 10.0603C13.7759 8.85013 13.7392 7.63301 14.3517 6.62589ZM9.37381 10.2598C8.5688 10.6911 7.77168 10.7113 7.11368 10.3123C6.10743 9.70239 5.5273 8.26475 5.51418 6.40013C7.3788 6.41325 8.8173 6.99338 9.42631 7.99963C9.8253 8.65763 9.80168 9.45475 9.37381 10.2598ZM15.4533 19.7001H9.57592L8.48917 14.8001H16.5392L15.4533 19.7001Z" fill="#404059" fill-opacity="0.6"/>
</svg>
