<svg width="24" height="24" viewBox="0 0 24 24" fill="none" xmlns="http://www.w3.org/2000/svg">
<path d="M12.5141 2.8999C10.7143 2.8999 8.95486 3.43361 7.45838 4.43353C5.96189 5.43345 4.79552 6.85467 4.10677 8.51749C3.418 10.1803 3.23779 12.01 3.58893 13.7752C3.94005 15.5404 4.80674 17.162 6.07939 18.4346C7.35205 19.7073 8.97352 20.574 10.7388 20.925C12.504 21.2762 14.3337 21.0959 15.9965 20.4073C17.6594 19.7185 19.0805 18.5521 20.0805 17.0556C21.0803 15.5591 21.6141 13.7997 21.6141 11.9999C21.6115 9.58721 20.652 7.27408 18.9459 5.56805C17.2398 3.86201 14.9268 2.90245 12.5141 2.8999ZM12.5141 19.6999C10.9912 19.6999 9.50243 19.2484 8.23618 18.4021C6.96992 17.5561 5.98299 16.3535 5.40019 14.9466C4.81739 13.5396 4.66491 11.9914 4.96202 10.4977C5.25912 9.00405 5.99248 7.63205 7.06934 6.55518C8.14621 5.47832 9.51822 4.74496 11.0119 4.44785C12.5055 4.15075 14.0537 4.30323 15.4607 4.88603C16.8677 5.46883 18.0702 6.45576 18.9163 7.72201C19.7624 8.98827 20.2141 10.477 20.2141 11.9999C20.2117 14.0414 19.3997 15.9985 17.9562 17.4421C16.5126 18.8857 14.5555 19.6977 12.5141 19.6999ZM13.2141 7.7999H10.4141C10.2284 7.7999 10.0504 7.87365 9.91909 8.00493C9.78782 8.13621 9.71406 8.31425 9.71406 8.4999V15.4999C9.71406 15.6856 9.78782 15.8636 9.91909 15.9949C10.0504 16.1261 10.2284 16.1999 10.4141 16.1999C10.5997 16.1999 10.7778 16.1261 10.909 15.9949C11.0403 15.8636 11.1141 15.6856 11.1141 15.4999V14.0999H13.2141C14.0495 14.0999 14.8507 13.768 15.4415 13.1773C16.0322 12.5865 16.364 11.7853 16.364 10.9499C16.364 10.1145 16.0322 9.31326 15.4415 8.72251C14.8507 8.13177 14.0495 7.7999 13.2141 7.7999ZM13.2141 12.6999H11.1141V9.1999H13.2141C13.6782 9.1999 14.1233 9.38427 14.4515 9.71246C14.7797 10.0407 14.9641 10.4858 14.9641 10.9499C14.9641 11.414 14.7797 11.8591 14.4515 12.1873C14.1233 12.5155 13.6782 12.6999 13.2141 12.6999Z" fill="#404059" fill-opacity="0.6"/>
</svg>
