<svg width="238" height="28" viewBox="0 0 238 28" fill="none" xmlns="http://www.w3.org/2000/svg">
<g clip-path="url(#clip0_1_2208)">
<path d="M45.8182 8.51129C45.0227 8.11356 44.0682 7.95447 42.9545 7.95447H36.8295V22.5113H39.8523V17.3408H42.9545C44.0682 17.3408 45.0227 17.1817 45.8182 16.784C46.6136 16.3863 47.25 15.909 47.6477 15.1931C48.0454 14.4772 48.2841 13.6817 48.2841 12.6476C48.2841 11.6931 48.0454 10.8181 47.6477 10.1022C47.1704 9.46583 46.6136 8.90901 45.8182 8.51129ZM44.5454 14.3976C44.0682 14.7954 43.4318 14.9545 42.4773 14.9545H39.8523V10.3408H42.4773C43.3523 10.3408 44.0682 10.4999 44.5454 10.8976C45.0227 11.2954 45.2613 11.8522 45.2613 12.6476C45.1818 13.4431 44.9432 13.9999 44.5454 14.3976Z" fill="#151B38"/>
<path d="M61.4091 15.6704C62.3636 14.8749 62.8409 13.8408 62.8409 12.409C62.8409 11.0567 62.3636 10.0226 61.4091 9.2272C60.4545 8.43174 59.1818 7.95447 57.5114 7.95447H51.0682V22.5113H54.0909V16.9431H56.7955L60.2159 22.5113H63.6364L59.6591 16.4658C60.375 16.3067 60.9318 16.0681 61.4091 15.6704ZM54.0909 10.4204H57.1932C58.0682 10.4204 58.7045 10.5795 59.1023 10.9772C59.5 11.2954 59.7386 11.8522 59.7386 12.5681C59.7386 13.284 59.5 13.8408 59.1023 14.159C58.7045 14.4772 58.0682 14.7158 57.1932 14.7158H54.0909V10.4204Z" fill="#151B38"/>
<path d="M76.0454 8.67041C75.0114 8.03405 73.7386 7.79541 72.3068 7.79541C70.875 7.79541 69.6023 8.11359 68.5682 8.67041C67.5341 9.30677 66.7386 10.1022 66.1023 11.2954C65.5454 12.409 65.2273 13.7613 65.2273 15.3522C65.2273 16.9431 65.5454 18.2159 66.1023 19.409C66.6591 20.5227 67.4545 21.3977 68.5682 22.034C69.6023 22.6704 70.875 22.909 72.3068 22.909C73.7386 22.909 75.0114 22.5909 76.0454 22.034C77.0795 21.3977 77.875 20.6022 78.4318 19.409C78.9886 18.2954 79.3068 16.9431 79.3068 15.3522C79.3068 13.7613 78.9886 12.4886 78.4318 11.2954C77.875 10.1022 77.0795 9.30677 76.0454 8.67041ZM75.6477 17.9772C75.3295 18.6931 74.9318 19.3295 74.2954 19.6477C73.6591 19.9659 73.0227 20.2045 72.2273 20.2045C71.4318 20.2045 70.7159 20.0454 70.1591 19.6477C69.6023 19.25 69.125 18.6931 68.8068 17.9772C68.4886 17.2613 68.3295 16.3068 68.3295 15.2727C68.3295 14.159 68.4886 13.284 68.8068 12.4886C69.125 11.7727 69.5227 11.2159 70.1591 10.8181C70.7159 10.4204 71.4318 10.2613 72.2273 10.2613C73.0227 10.2613 73.7386 10.4204 74.2954 10.8181C74.8523 11.2159 75.3295 11.7727 75.6477 12.4886C75.9659 13.2045 76.125 14.159 76.125 15.2727C76.125 16.3863 75.9659 17.2613 75.6477 17.9772Z" fill="#151B38"/>
<path d="M91.3182 8.51129C90.5227 8.11356 89.5682 7.95447 88.4545 7.95447H82.3295V22.5113H85.3523V17.3408H88.4545C89.5682 17.3408 90.5227 17.1817 91.3182 16.784C92.1136 16.3863 92.75 15.909 93.1477 15.1931C93.5454 14.4772 93.7841 13.6817 93.7841 12.6476C93.7841 11.6931 93.5454 10.8181 93.1477 10.1022C92.75 9.46583 92.1136 8.90901 91.3182 8.51129ZM90.0454 14.3976C89.5682 14.7954 88.9318 14.9545 87.9773 14.9545H85.3523V10.3408H87.9773C88.8523 10.3408 89.5682 10.4999 90.0454 10.8976C90.5227 11.2954 90.7613 11.8522 90.7613 12.6476C90.7613 13.4431 90.5227 13.9999 90.0454 14.3976Z" fill="#151B38"/>
<path d="M99.6704 16.3863H105.875V14.0795H99.6704V10.4204H107.545V7.95447H96.6477V22.5908H107.864V20.1249H99.6704V16.3863Z" fill="#151B38"/>
<path d="M120.909 15.6704C121.864 14.875 122.341 13.8409 122.341 12.4091C122.341 11.0568 121.864 10.0227 120.909 9.22724C119.955 8.43178 118.682 8.03406 117.011 8.03406H110.568V22.5909H113.591V17.0227H116.295L119.716 22.5909H123.136L119.159 16.5454C119.875 16.3068 120.432 16.0681 120.909 15.6704ZM113.591 10.4204H116.693C117.568 10.4204 118.205 10.5795 118.602 10.9772C119 11.2954 119.239 11.8522 119.239 12.5681C119.239 13.2841 119 13.8409 118.602 14.1591C118.205 14.4772 117.568 14.7159 116.693 14.7159H113.591V10.4204Z" fill="#151B38"/>
<path d="M124.091 10.4204H128.943V22.5908H132.045V10.4204H136.898V7.95447H124.091V10.4204Z" fill="#151B38"/>
<path d="M147.636 7.95447L145.33 12.3295L144.216 14.6363L143.102 12.3295L140.716 7.95447H137.455L142.625 17.1022V22.5908H145.727V17.1022L150.898 7.95447H147.636Z" fill="#151B38"/>
<path d="M161.716 15.9886L160.761 19.2499H160.682L159.807 15.909L157.182 7.95447H152.727V22.5908H155.511V14.9545L155.352 10.7386L159.409 22.5908H161.875L165.932 10.7386H166.011L165.852 14.9545V22.5908H168.636V7.95447H164.341L161.716 15.9886Z" fill="#27C499"/>
<path d="M182.398 8.67041C181.364 8.03405 180.091 7.79541 178.659 7.79541C177.227 7.79541 175.954 8.11359 174.92 8.67041C173.886 9.30677 173.091 10.1022 172.455 11.2954C171.898 12.409 171.579 13.7613 171.579 15.3522C171.579 16.9431 171.898 18.2159 172.455 19.409C173.011 20.5227 173.807 21.3977 174.92 22.034C175.954 22.6704 177.227 22.909 178.659 22.909C180.091 22.909 181.364 22.5909 182.398 22.034C183.432 21.3977 184.227 20.6022 184.784 19.409C185.341 18.2954 185.659 16.9431 185.659 15.3522C185.659 13.7613 185.341 12.4886 184.784 11.2954C184.307 10.1022 183.511 9.30677 182.398 8.67041ZM182.079 17.9772C181.761 18.6931 181.364 19.3295 180.727 19.6477C180.091 19.9659 179.455 20.2045 178.659 20.2045C177.864 20.2045 177.148 20.0454 176.591 19.6477C176.034 19.25 175.557 18.6931 175.239 17.9772C174.92 17.2613 174.761 16.3068 174.761 15.2727C174.761 14.159 174.92 13.284 175.239 12.4886C175.557 11.7727 175.955 11.2159 176.591 10.8181C177.148 10.4204 177.864 10.2613 178.659 10.2613C179.455 10.2613 180.17 10.4204 180.727 10.8181C181.284 11.2159 181.761 11.7727 182.079 12.4886C182.398 13.2045 182.557 14.159 182.557 15.2727C182.557 16.3863 182.398 17.2613 182.079 17.9772Z" fill="#27C499"/>
<path d="M186.932 10.4204H191.784V22.5908H194.886V10.4204H199.739V7.95447H186.932V10.4204Z" fill="#27C499"/>
<path d="M205.307 7.95447H202.284V22.5113H205.307V7.95447Z" fill="#27C499"/>
<path d="M219.148 8.67041C218.114 8.03405 216.841 7.79541 215.409 7.79541C213.977 7.79541 212.705 8.11359 211.67 8.67041C210.636 9.30677 209.841 10.1022 209.205 11.2954C208.648 12.409 208.329 13.7613 208.329 15.3522C208.329 16.9431 208.648 18.2159 209.205 19.409C209.761 20.5227 210.557 21.3977 211.67 22.034C212.705 22.6704 213.977 22.909 215.409 22.909C216.841 22.909 218.114 22.5909 219.148 22.034C220.182 21.3977 220.977 20.6022 221.534 19.409C222.091 18.2954 222.409 16.9431 222.409 15.3522C222.409 13.7613 222.091 12.4886 221.534 11.2954C220.977 10.1022 220.182 9.30677 219.148 8.67041ZM218.83 17.9772C218.511 18.6931 218.114 19.3295 217.477 19.6477C216.841 19.9659 216.204 20.2045 215.409 20.2045C214.614 20.2045 213.898 20.0454 213.341 19.6477C212.784 19.25 212.307 18.6931 211.989 17.9772C211.67 17.2613 211.511 16.3068 211.511 15.2727C211.511 14.159 211.67 13.284 211.989 12.4886C212.307 11.7727 212.705 11.2159 213.341 10.8181C213.898 10.4204 214.614 10.2613 215.409 10.2613C216.204 10.2613 216.92 10.4204 217.477 10.8181C218.034 11.2159 218.511 11.7727 218.83 12.4886C219.148 13.2045 219.307 14.159 219.307 15.2727C219.227 16.3863 219.068 17.2613 218.83 17.9772Z" fill="#27C499"/>
<path d="M235.295 7.95447V16.3863L235.375 18.9317H235.295L234.023 16.5454L228.932 7.95447H225.511V22.5908H228.216V14.159L228.136 11.6136L229.409 13.9999L234.5 22.5908H238V7.95447H235.295Z" fill="#27C499"/>
<path d="M28 28H8.82955C3.97727 28 0 24.1023 0 19.25V0H19.25C24.1023 0 28.0795 3.97727 28.0795 8.82955V28H28Z" fill="#27C499"/>
<path d="M14.4773 5.25C15.8295 5.25 16.9432 5.48864 17.9773 5.96591C18.9318 6.44318 19.6477 7.07955 20.2045 7.875C20.7614 8.75 21 9.70455 21 10.8977C21 12.0909 20.7614 13.125 20.2045 13.9205C19.6477 14.7955 18.9318 15.4318 17.9773 15.8295C17.0227 16.3068 15.8295 16.5455 14.4773 16.5455H10.7386V22.75H9.22727C8.03409 22.75 7 21.7955 7 20.5227V5.25H14.4773ZM13.9205 13.6818C15.0341 13.6818 15.8295 13.4432 16.3864 12.9659C16.9432 12.4886 17.1818 11.7727 17.1818 10.8977C17.1818 9.94318 16.9432 9.30682 16.3864 8.82955C15.8295 8.35227 15.0341 8.11364 13.9205 8.11364H10.8182V13.6818H13.9205Z" fill="#151B38"/>
</g>
<defs>
<clipPath id="clip0_1_2208">
<rect width="238" height="28" fill="white"/>
</clipPath>
</defs>
</svg>
