<svg width="208" height="24" viewBox="0 0 208 24" fill="none" xmlns="http://www.w3.org/2000/svg">
<g clip-path="url(#clip0_1_1026)">
<path d="M40.0428 7.29545C39.3476 6.95454 38.5134 6.81818 37.5401 6.81818H32.1872V19.2954H34.8289V14.8636H37.5401C38.5134 14.8636 39.3476 14.7273 40.0428 14.3864C40.738 14.0454 41.2941 13.6364 41.6417 13.0227C41.9893 12.4091 42.1979 11.7273 42.1979 10.8409C42.1979 10.0227 41.9893 9.27272 41.6417 8.65909C41.2246 8.11363 40.738 7.63636 40.0428 7.29545ZM38.9305 12.3409C38.5134 12.6818 37.9572 12.8182 37.123 12.8182H34.8289V8.86363H37.123C37.8877 8.86363 38.5134 8.99999 38.9305 9.3409C39.3476 9.68181 39.5561 10.1591 39.5561 10.8409C39.4866 11.5227 39.2781 12 38.9305 12.3409Z" fill="white"/>
<path d="M53.6684 13.4318C54.5027 12.75 54.9198 11.8636 54.9198 10.6364C54.9198 9.47727 54.5027 8.5909 53.6684 7.90909C52.8342 7.22727 51.7219 6.81818 50.262 6.81818H44.631V19.2954H47.2727V14.5227H49.6364L52.6257 19.2954H55.615L52.139 14.1136C52.7647 13.9773 53.2513 13.7727 53.6684 13.4318ZM47.2727 8.93181H49.984C50.7487 8.93181 51.3048 9.06818 51.6524 9.40909C52 9.68181 52.2086 10.1591 52.2086 10.7727C52.2086 11.3864 52 11.8636 51.6524 12.1364C51.3048 12.4091 50.7487 12.6136 49.984 12.6136H47.2727V8.93181Z" fill="white"/>
<path d="M66.4599 7.43182C65.5561 6.88637 64.4438 6.68182 63.1925 6.68182C61.9412 6.68182 60.8289 6.95455 59.9251 7.43182C59.0214 7.97728 58.3262 8.6591 57.77 9.68182C57.2834 10.6364 57.0053 11.7955 57.0053 13.1591C57.0053 14.5227 57.2834 15.6136 57.77 16.6364C58.2567 17.5909 58.9519 18.3409 59.9251 18.8864C60.8289 19.4318 61.9412 19.6364 63.1925 19.6364C64.4438 19.6364 65.5561 19.3636 66.4599 18.8864C67.3636 18.3409 68.0588 17.6591 68.5454 16.6364C69.0321 15.6818 69.3102 14.5227 69.3102 13.1591C69.3102 11.7955 69.0321 10.7046 68.5454 9.68182C68.0588 8.6591 67.3636 7.97728 66.4599 7.43182ZM66.1123 15.4091C65.8342 16.0227 65.4866 16.5682 64.9305 16.8409C64.3743 17.1136 63.8182 17.3182 63.123 17.3182C62.4278 17.3182 61.8021 17.1818 61.3155 16.8409C60.8289 16.5 60.4118 16.0227 60.1337 15.4091C59.8556 14.7955 59.7166 13.9773 59.7166 13.0909C59.7166 12.1364 59.8556 11.3864 60.1337 10.7046C60.4118 10.0909 60.7593 9.61364 61.3155 9.27273C61.8021 8.93182 62.4278 8.79546 63.123 8.79546C63.8182 8.79546 64.4438 8.93182 64.9305 9.27273C65.4171 9.61364 65.8342 10.0909 66.1123 10.7046C66.3904 11.3182 66.5294 12.1364 66.5294 13.0909C66.5294 14.0455 66.3904 14.7955 66.1123 15.4091Z" fill="white"/>
<path d="M79.8075 7.29545C79.1123 6.95454 78.2781 6.81818 77.3048 6.81818H71.9519V19.2954H74.5936V14.8636H77.3048C78.2781 14.8636 79.1123 14.7273 79.8075 14.3864C80.5027 14.0454 81.0588 13.6364 81.4064 13.0227C81.754 12.4091 81.9626 11.7273 81.9626 10.8409C81.9626 10.0227 81.754 9.27272 81.4064 8.65909C81.0588 8.11363 80.5027 7.63636 79.8075 7.29545ZM78.6952 12.3409C78.2781 12.6818 77.7219 12.8182 76.8877 12.8182H74.5936V8.86363H76.8877C77.6524 8.86363 78.2781 8.99999 78.6952 9.3409C79.1123 9.68181 79.3209 10.1591 79.3209 10.8409C79.3209 11.5227 79.1123 12 78.6952 12.3409Z" fill="white"/>
<path d="M87.107 14.0454H92.5294V12.0682H87.107V8.93181H93.9893V6.81818H84.4652V19.3636H94.2674V17.25H87.107V14.0454Z" fill="white"/>
<path d="M105.668 13.4318C106.503 12.75 106.92 11.8636 106.92 10.6364C106.92 9.47726 106.503 8.5909 105.668 7.90908C104.834 7.22726 103.722 6.88635 102.262 6.88635H96.631V19.3636H99.2727V14.5909H101.636L104.626 19.3636H107.615L104.139 14.1818C104.765 13.9773 105.251 13.7727 105.668 13.4318ZM99.2727 8.93181H101.984C102.749 8.93181 103.305 9.06817 103.652 9.40908C104 9.68181 104.209 10.1591 104.209 10.7727C104.209 11.3864 104 11.8636 103.652 12.1364C103.305 12.4091 102.749 12.6136 101.984 12.6136H99.2727V8.93181Z" fill="white"/>
<path d="M108.449 8.93181H112.69V19.3636H115.401V8.93181H119.642V6.81818H108.449V8.93181Z" fill="white"/>
<path d="M129.027 6.81818L127.011 10.5682L126.037 12.5454L125.064 10.5682L122.979 6.81818H120.128L124.647 14.6591V19.3636H127.358V14.6591L131.877 6.81818H129.027Z" fill="white"/>
<path d="M141.332 13.7045L140.497 16.5H140.428L139.663 13.6364L137.369 6.81818H133.476V19.3636H135.909V12.8182L135.77 9.20454L139.315 19.3636H141.471L145.016 9.20454H145.086L144.947 12.8182V19.3636H147.38V6.81818H143.626L141.332 13.7045Z" fill="#27C499"/>
<path d="M159.406 7.43182C158.503 6.88637 157.39 6.68182 156.139 6.68182C154.888 6.68182 153.775 6.95455 152.872 7.43182C151.968 7.97728 151.273 8.6591 150.717 9.68182C150.23 10.6364 149.952 11.7955 149.952 13.1591C149.952 14.5227 150.23 15.6136 150.717 16.6364C151.203 17.5909 151.898 18.3409 152.872 18.8864C153.775 19.4318 154.888 19.6364 156.139 19.6364C157.39 19.6364 158.503 19.3636 159.406 18.8864C160.31 18.3409 161.005 17.6591 161.492 16.6364C161.979 15.6818 162.257 14.5227 162.257 13.1591C162.257 11.7955 161.979 10.7046 161.492 9.68182C161.075 8.6591 160.38 7.97728 159.406 7.43182ZM159.128 15.4091C158.85 16.0227 158.503 16.5682 157.946 16.8409C157.39 17.1136 156.834 17.3182 156.139 17.3182C155.444 17.3182 154.818 17.1818 154.332 16.8409C153.845 16.5 153.428 16.0227 153.15 15.4091C152.872 14.7955 152.733 13.9773 152.733 13.0909C152.733 12.1364 152.872 11.3864 153.15 10.7046C153.428 10.0909 153.775 9.61364 154.332 9.27273C154.818 8.93182 155.444 8.79546 156.139 8.79546C156.834 8.79546 157.46 8.93182 157.946 9.27273C158.433 9.61364 158.85 10.0909 159.128 10.7046C159.406 11.3182 159.545 12.1364 159.545 13.0909C159.545 14.0455 159.406 14.7955 159.128 15.4091Z" fill="#27C499"/>
<path d="M163.369 8.93181H167.61V19.3636H170.321V8.93181H174.561V6.81818H163.369V8.93181Z" fill="#27C499"/>
<path d="M179.428 6.81818H176.786V19.2954H179.428V6.81818Z" fill="#27C499"/>
<path d="M191.524 7.43182C190.62 6.88637 189.508 6.68182 188.257 6.68182C187.005 6.68182 185.893 6.95455 184.989 7.43182C184.086 7.97728 183.39 8.6591 182.834 9.68182C182.348 10.6364 182.069 11.7955 182.069 13.1591C182.069 14.5227 182.348 15.6136 182.834 16.6364C183.321 17.5909 184.016 18.3409 184.989 18.8864C185.893 19.4318 187.005 19.6364 188.257 19.6364C189.508 19.6364 190.62 19.3636 191.524 18.8864C192.428 18.3409 193.123 17.6591 193.61 16.6364C194.096 15.6818 194.374 14.5227 194.374 13.1591C194.374 11.7955 194.096 10.7046 193.61 9.68182C193.123 8.6591 192.428 7.97728 191.524 7.43182ZM191.246 15.4091C190.968 16.0227 190.62 16.5682 190.064 16.8409C189.508 17.1136 188.952 17.3182 188.257 17.3182C187.561 17.3182 186.936 17.1818 186.449 16.8409C185.963 16.5 185.545 16.0227 185.267 15.4091C184.989 14.7955 184.85 13.9773 184.85 13.0909C184.85 12.1364 184.989 11.3864 185.267 10.7046C185.545 10.0909 185.893 9.61364 186.449 9.27273C186.936 8.93182 187.561 8.79546 188.257 8.79546C188.952 8.79546 189.578 8.93182 190.064 9.27273C190.551 9.61364 190.968 10.0909 191.246 10.7046C191.524 11.3182 191.663 12.1364 191.663 13.0909C191.594 14.0455 191.455 14.7955 191.246 15.4091Z" fill="#27C499"/>
<path d="M205.636 6.81818V14.0454L205.706 16.2273H205.636L204.524 14.1818L200.075 6.81818H197.086V19.3636H199.449V12.1364L199.38 9.95454L200.492 12L204.941 19.3636H208V6.81818H205.636Z" fill="#27C499"/>
<path d="M24.4706 24H7.71658C3.47594 24 0 20.6591 0 16.5V0H16.8235C21.0642 0 24.5401 3.40909 24.5401 7.56818V24H24.4706Z" fill="#27C499"/>
<path d="M12.6524 4.5C13.8342 4.5 14.8075 4.70455 15.7112 5.11364C16.5455 5.52273 17.1711 6.06818 17.6578 6.75C18.1444 7.5 18.3529 8.31818 18.3529 9.34091C18.3529 10.3636 18.1444 11.25 17.6578 11.9318C17.1711 12.6818 16.5455 13.2273 15.7112 13.5682C14.877 13.9773 13.8342 14.1818 12.6524 14.1818H9.38502V19.5H8.06417C7.02139 19.5 6.11765 18.6818 6.11765 17.5909V4.5H12.6524ZM12.1658 11.7273C13.139 11.7273 13.8342 11.5227 14.3209 11.1136C14.8075 10.7045 15.016 10.0909 15.016 9.34091C15.016 8.52273 14.8075 7.97727 14.3209 7.56818C13.8342 7.15909 13.139 6.95455 12.1658 6.95455H9.45454V11.7273H12.1658Z" fill="#151B38"/>
</g>
<defs>
<clipPath id="clip0_1_1026">
<rect width="208" height="24" fill="white"/>
</clipPath>
</defs>
</svg>
